<svg preserveAspectRatio="none" width="100%" height="100%" overflow="visible" style="display: block;" viewBox="0 0 21.25 20" fill="none" xmlns="http://www.w3.org/2000/svg">
<g id="Container">
<path id="Icon" d="M1.25001 16.25V16.25V17.9808C1.25001 18.2051 1.25001 18.3894 1.25001 18.5337C1.25001 18.6779 1.25001 18.75 1.25001 18.75V18.75C1.25001 18.75 1.25001 18.6779 1.25001 18.5337C1.25001 18.3894 1.25001 18.2051 1.25001 17.9808V2.01923C1.25001 1.79488 1.25001 1.61058 1.25001 1.46635C1.25001 1.32212 1.25001 1.25001 1.25001 1.25001V1.25001C1.25001 1.25001 1.25001 1.32212 1.25001 1.46635C1.25001 1.61058 1.25001 1.79488 1.25001 2.01923V3.74999V3.74999C1.25001 3.74999 1.25001 4.04527 1.25001 4.63581C1.25001 5.22636 1.25001 6.02083 1.25001 7.01923V12.9808C1.25001 13.9792 1.25001 14.7737 1.25001 15.3642C1.25001 15.9547 1.25001 16.25 1.25001 16.25V16.25M2.01923 20C1.45994 20 0.983575 19.8033 0.590145 19.4099C0.196715 19.0164 0 18.5401 0 17.9808V2.01923C0 1.45994 0.196715 0.983575 0.590145 0.590145C0.983575 0.196715 1.45994 0 2.01923 0H17.9808C18.5401 0 19.0164 0.196715 19.4099 0.590145C19.8033 0.983575 20 1.45994 20 2.01923V5.69711H18.75V2.01923C18.75 1.79488 18.6779 1.61058 18.5337 1.46635C18.3894 1.32212 18.2051 1.25001 17.9808 1.25001H2.01923C1.79488 1.25001 1.61058 1.32212 1.46635 1.46635C1.32212 1.61058 1.25001 1.79488 1.25001 2.01923V17.9808C1.25001 18.2051 1.32212 18.3894 1.46635 18.5337C1.61058 18.6779 1.79488 18.75 2.01923 18.75H17.9808C18.2051 18.75 18.3894 18.6779 18.5337 18.5337C18.6779 18.3894 18.75 18.2051 18.75 17.9808V14.3029H20V17.9808C20 18.5401 19.8033 19.0164 19.4099 19.4099C19.0164 19.8033 18.5401 20 17.9808 20H2.01923V20M12.0192 15C11.4599 15 10.9836 14.8033 10.5901 14.4099C10.1967 14.0164 10 13.5401 10 12.9808V7.01923C10 6.45994 10.1967 5.98358 10.5901 5.59015C10.9836 5.19672 11.4599 5 12.0192 5H19.2308C19.7901 5 20.2664 5.19672 20.6599 5.59015C21.0533 5.98358 21.25 6.45994 21.25 7.01923V12.9808C21.25 13.5401 21.0533 14.0164 20.6599 14.4099C20.2664 14.8033 19.7901 15 19.2308 15H12.0192V15M19.2308 13.75C19.4551 13.75 19.6394 13.6779 19.7837 13.5337C19.9279 13.3894 20 13.2051 20 12.9808V7.01923C20 6.79488 19.9279 6.61058 19.7837 6.46635C19.6394 6.32212 19.4551 6.25001 19.2308 6.25001H12.0192C11.7949 6.25001 11.6106 6.32212 11.4664 6.46635C11.3221 6.61058 11.25 6.79488 11.25 7.01923V12.9808C11.25 13.2051 11.3221 13.3894 11.4664 13.5337C11.6106 13.6779 11.7949 13.75 12.0192 13.75H19.2308V13.75M15 11.875C15.5208 11.875 15.9635 11.6927 16.3281 11.3281C16.6927 10.9635 16.875 10.5208 16.875 10C16.875 9.47917 16.6927 9.03647 16.3281 8.67188C15.9635 8.3073 15.5208 8.12501 15 8.12501C14.4792 8.12501 14.0365 8.3073 13.6719 8.67188C13.3073 9.03647 13.125 9.47917 13.125 10C13.125 10.5208 13.3073 10.9635 13.6719 11.3281C14.0365 11.6927 14.4792 11.875 15 11.875V11.875" fill="var(--fill-0, #D1C5B4)"/>
</g>
</svg>
