<svg preserveAspectRatio="none" width="100%" height="100%" overflow="visible" style="display: block;" viewBox="0 0 22.5 29.5" fill="none" xmlns="http://www.w3.org/2000/svg">
<g id="Margin">
<path id="Icon" d="M22.5 14.0192V27.4808C22.5 28.0561 22.3073 28.5365 21.9219 28.9219C21.5365 29.3073 21.0561 29.5 20.4808 29.5H2.01923C1.44391 29.5 0.963543 29.3073 0.578126 28.9219C0.192709 28.5365 0 28.0561 0 27.4808V14.0192C0 13.4439 0.192709 12.9635 0.578126 12.5781C0.963543 12.1927 1.44391 12 2.01923 12H20.4808C21.0561 12 21.5365 12.1927 21.9219 12.5781C22.3073 12.9635 22.5 13.4439 22.5 14.0192V14.0192M1.25001 16.7596H21.25V14.0192C21.25 13.8269 21.1699 13.6506 21.0096 13.4904C20.8494 13.3301 20.6731 13.25 20.4808 13.25H2.01923C1.82693 13.25 1.65065 13.3301 1.49039 13.4904C1.33014 13.6506 1.25001 13.8269 1.25001 14.0192V16.7596V16.7596M1.25001 19.7404V27.4808C1.25001 27.6731 1.33014 27.8494 1.49039 28.0096C1.65065 28.1699 1.82693 28.25 2.01923 28.25H20.4808C20.6731 28.25 20.8494 28.1699 21.0096 28.0096C21.1699 27.8494 21.25 27.6731 21.25 27.4808V19.7404H1.25001V19.7404M1.25001 28.25V28.25C1.25001 28.25 1.25001 28.1779 1.25001 28.0337C1.25001 27.8894 1.25001 27.7051 1.25001 27.4808V14.0192C1.25001 13.7949 1.25001 13.6106 1.25001 13.4664C1.25001 13.3221 1.25001 13.25 1.25001 13.25V13.25C1.25001 13.25 1.25001 13.3221 1.25001 13.4664C1.25001 13.6106 1.25001 13.7949 1.25001 14.0192V27.4808C1.25001 27.7051 1.25001 27.8894 1.25001 28.0337C1.25001 28.1779 1.25001 28.25 1.25001 28.25V28.25" fill="var(--fill-0, #E9C349)"/>
</g>
</svg>
